<svg aria-roledescription="er" role="graphics-document document" viewBox="0 0 347.44921875 335" style="max-width: 3840px; background-color: white; max-height: 3840px;" xmlns:xlink="http://www.w3.org/1999/xlink" xmlns="http://www.w3.org/2000/svg" width="100%" id="my-svg"><style>#my-svg{font-family:"trebuchet ms",verdana,arial,sans-serif;font-size:16px;fill:#333;}#my-svg .error-icon{fill:#552222;}#my-svg .error-text{fill:#552222;stroke:#552222;}#my-svg .edge-thickness-normal{stroke-width:2px;}#my-svg .edge-thickness-thick{stroke-width:3.5px;}#my-svg .edge-pattern-solid{stroke-dasharray:0;}#my-svg .edge-pattern-dashed{stroke-dasharray:3;}#my-svg .edge-pattern-dotted{stroke-dasharray:2;}#my-svg .marker{fill:#333333;stroke:#333333;}#my-svg .marker.cross{stroke:#333333;}#my-svg svg{font-family:"trebuchet ms",verdana,arial,sans-serif;font-size:16px;}#my-svg .entityBox{fill:#ECECFF;stroke:#9370DB;}#my-svg .attributeBoxOdd{fill:#ffffff;stroke:#9370DB;}#my-svg .attributeBoxEven{fill:#f2f2f2;stroke:#9370DB;}#my-svg .relationshipLabelBox{fill:hsl(80, 100%, 96.2745098039%);opacity:0.7;background-color:hsl(80, 100%, 96.2745098039%);}#my-svg .relationshipLabelBox rect{opacity:0.5;}#my-svg .relationshipLine{stroke:#333333;}#my-svg .entityTitleText{text-anchor:middle;font-size:18px;fill:#333;}#my-svg #MD_PARENT_START{fill:#f5f5f5!important;stroke:#333333!important;stroke-width:1;}#my-svg #MD_PARENT_END{fill:#f5f5f5!important;stroke:#333333!important;stroke-width:1;}#my-svg :root{--mermaid-font-family:"trebuchet ms",verdana,arial,sans-serif;}</style><g/><defs><marker orient="auto" markerHeight="240" markerWidth="190" refY="7" refX="0" id="MD_PARENT_START"><path d="M 18,7 L9,13 L1,7 L9,1 Z"/></marker></defs><defs><marker orient="auto" markerHeight="28" markerWidth="20" refY="7" refX="19" id="MD_PARENT_END"><path d="M 18,7 L9,13 L1,7 L9,1 Z"/></marker></defs><defs><marker orient="auto" markerHeight="18" markerWidth="18" refY="9" refX="0" id="ONLY_ONE_START"><path d="M9,0 L9,18 M15,0 L15,18" fill="none" stroke="gray"/></marker></defs><defs><marker orient="auto" markerHeight="18" markerWidth="18" refY="9" refX="18" id="ONLY_ONE_END"><path d="M3,0 L3,18 M9,0 L9,18" fill="none" stroke="gray"/></marker></defs><defs><marker orient="auto" markerHeight="18" markerWidth="30" refY="9" refX="0" id="ZERO_OR_ONE_START"><circle r="6" cy="9" cx="21" fill="white" stroke="gray"/><path d="M9,0 L9,18" fill="none" stroke="gray"/></marker></defs><defs><marker orient="auto" markerHeight="18" markerWidth="30" refY="9" refX="30" id="ZERO_OR_ONE_END"><circle r="6" cy="9" cx="9" fill="white" stroke="gray"/><path d="M21,0 L21,18" fill="none" stroke="gray"/></marker></defs><defs><marker orient="auto" markerHeight="36" markerWidth="45" refY="18" refX="18" id="ONE_OR_MORE_START"><path d="M0,18 Q 18,0 36,18 Q 18,36 0,18 M42,9 L42,27" fill="none" stroke="gray"/></marker></defs><defs><marker orient="auto" markerHeight="36" markerWidth="45" refY="18" refX="27" id="ONE_OR_MORE_END"><path d="M3,9 L3,27 M9,18 Q27,0 45,18 Q27,36 9,18" fill="none" stroke="gray"/></marker></defs><defs><marker orient="auto" markerHeight="36" markerWidth="57" refY="18" refX="18" id="ZERO_OR_MORE_START"><circle r="6" cy="18" cx="48" fill="white" stroke="gray"/><path d="M0,18 Q18,0 36,18 Q18,36 0,18" fill="none" stroke="gray"/></marker></defs><defs><marker orient="auto" markerHeight="36" markerWidth="57" refY="18" refX="39" id="ZERO_OR_MORE_END"><circle r="6" cy="18" cx="9" fill="white" stroke="gray"/><path d="M21,18 Q39,0 57,18 Q39,36 21,18" fill="none" stroke="gray"/></marker></defs><path style="stroke: gray; fill: none;" marker-start="url(#ONLY_ONE_START)" marker-end="url(#ZERO_OR_MORE_END)" d="M273.725,107L273.725,115.333C273.725,123.667,273.725,140.333,273.725,157C273.725,173.667,273.725,190.333,273.725,198.667L273.725,207" class="er relationshipLine"/><g transform="translate(20,20 )" id="entity-USER-6e7e2962-0c6f-577d-a7fd-2ce3a0cfd2c8"><rect height="87" width="100" y="0" x="0" class="er entityBox"/><text style="dominant-baseline: middle; text-anchor: middle; font-size: 12px;" transform="translate(50,12)" y="0" x="0" id="text-entity-USER-6e7e2962-0c6f-577d-a7fd-2ce3a0cfd2c8" class="er entityLabel">USER</text><rect height="21" width="39.64306640625" y="24" x="0" class="er attributeBoxOdd"/><text style="dominant-baseline: middle; font-size: 10.2px;" transform="translate(5,34.5)" y="0" x="0" id="text-entity-USER-6e7e2962-0c6f-577d-a7fd-2ce3a0cfd2c8-attr-1-type" class="er entityLabel">int</text><rect height="21" width="60.35693359375" y="24" x="39.64306640625" class="er attributeBoxOdd"/><text style="dominant-baseline: middle; font-size: 10.2px;" transform="translate(44.64306640625,34.5)" y="0" x="0" id="text-entity-USER-6e7e2962-0c6f-577d-a7fd-2ce3a0cfd2c8-attr-1-name" class="er entityLabel">id</text><rect height="21" width="39.64306640625" y="45" x="0" class="er attributeBoxEven"/><text style="dominant-baseline: middle; font-size: 10.2px;" transform="translate(5,55.5)" y="0" x="0" id="text-entity-USER-6e7e2962-0c6f-577d-a7fd-2ce3a0cfd2c8-attr-2-type" class="er entityLabel">string</text><rect height="21" width="60.35693359375" y="45" x="39.64306640625" class="er attributeBoxEven"/><text style="dominant-baseline: middle; font-size: 10.2px;" transform="translate(44.64306640625,55.5)" y="0" x="0" id="text-entity-USER-6e7e2962-0c6f-577d-a7fd-2ce3a0cfd2c8-attr-2-name" class="er entityLabel">username</text><rect height="21" width="39.64306640625" y="66" x="0" class="er attributeBoxOdd"/><text style="dominant-baseline: middle; font-size: 10.2px;" transform="translate(5,76.5)" y="0" x="0" id="text-entity-USER-6e7e2962-0c6f-577d-a7fd-2ce3a0cfd2c8-attr-3-type" class="er entityLabel">string</text><rect height="21" width="60.35693359375" y="66" x="39.64306640625" class="er attributeBoxOdd"/><text style="dominant-baseline: middle; font-size: 10.2px;" transform="translate(44.64306640625,76.5)" y="0" x="0" id="text-entity-USER-6e7e2962-0c6f-577d-a7fd-2ce3a0cfd2c8-attr-3-name" class="er entityLabel">password</text></g><g transform="translate(220,20 )" id="entity-PRODUCTOR-9d3387a3-88e2-5b7e-a06b-dd4c741548e8"><rect height="87" width="107.44921875" y="0" x="0" class="er entityBox"/><text style="dominant-baseline: middle; text-anchor: middle; font-size: 12px;" transform="translate(53.724609375,12)" y="0" x="0" id="text-entity-PRODUCTOR-9d3387a3-88e2-5b7e-a06b-dd4c741548e8" class="er entityLabel">PRODUCTOR</text><rect height="21" width="53.276611328125" y="24" x="0" class="er attributeBoxOdd"/><text style="dominant-baseline: middle; font-size: 10.2px;" transform="translate(5,34.5)" y="0" x="0" id="text-entity-PRODUCTOR-9d3387a3-88e2-5b7e-a06b-dd4c741548e8-attr-1-type" class="er entityLabel">int</text><rect height="21" width="54.172607421875" y="24" x="53.276611328125" class="er attributeBoxOdd"/><text style="dominant-baseline: middle; font-size: 10.2px;" transform="translate(58.276611328125,34.5)" y="0" x="0" id="text-entity-PRODUCTOR-9d3387a3-88e2-5b7e-a06b-dd4c741548e8-attr-1-name" class="er entityLabel">id</text><rect height="21" width="53.276611328125" y="45" x="0" class="er attributeBoxEven"/><text style="dominant-baseline: middle; font-size: 10.2px;" transform="translate(5,55.5)" y="0" x="0" id="text-entity-PRODUCTOR-9d3387a3-88e2-5b7e-a06b-dd4c741548e8-attr-2-type" class="er entityLabel">string</text><rect height="21" width="54.172607421875" y="45" x="53.276611328125" class="er attributeBoxEven"/><text style="dominant-baseline: middle; font-size: 10.2px;" transform="translate(58.276611328125,55.5)" y="0" x="0" id="text-entity-PRODUCTOR-9d3387a3-88e2-5b7e-a06b-dd4c741548e8-attr-2-name" class="er entityLabel">name</text><rect height="21" width="53.276611328125" y="66" x="0" class="er attributeBoxOdd"/><text style="dominant-baseline: middle; font-size: 10.2px;" transform="translate(5,76.5)" y="0" x="0" id="text-entity-PRODUCTOR-9d3387a3-88e2-5b7e-a06b-dd4c741548e8-attr-3-type" class="er entityLabel">string</text><rect height="21" width="54.172607421875" y="66" x="53.276611328125" class="er attributeBoxOdd"/><text style="dominant-baseline: middle; font-size: 10.2px;" transform="translate(58.276611328125,76.5)" y="0" x="0" id="text-entity-PRODUCTOR-9d3387a3-88e2-5b7e-a06b-dd4c741548e8-attr-3-name" class="er entityLabel">cpf</text></g><g transform="translate(221.79771423339844,207 )" id="entity-PROPERTY-ef67ef10-931a-508c-a211-2ca2f987ce03"><rect height="108" width="103.85379028320312" y="0" x="0" class="er entityBox"/><text style="dominant-baseline: middle; text-anchor: middle; font-size: 12px;" transform="translate(51.92689514160156,12)" y="0" x="0" id="text-entity-PROPERTY-ef67ef10-931a-508c-a211-2ca2f987ce03" class="er entityLabel">PROPERTY</text><rect height="21" width="34.921875" y="24" x="0" class="er attributeBoxOdd"/><text style="dominant-baseline: middle; font-size: 10.2px;" transform="translate(5,34.5)" y="0" x="0" id="text-entity-PROPERTY-ef67ef10-931a-508c-a211-2ca2f987ce03-attr-1-type" class="er entityLabel">int</text><rect height="21" width="68.93191528320312" y="24" x="34.921875" class="er attributeBoxOdd"/><text style="dominant-baseline: middle; font-size: 10.2px;" transform="translate(39.921875,34.5)" y="0" x="0" id="text-entity-PROPERTY-ef67ef10-931a-508c-a211-2ca2f987ce03-attr-1-name" class="er entityLabel">id</text><rect height="21" width="34.921875" y="45" x="0" class="er attributeBoxEven"/><text style="dominant-baseline: middle; font-size: 10.2px;" transform="translate(5,55.5)" y="0" x="0" id="text-entity-PROPERTY-ef67ef10-931a-508c-a211-2ca2f987ce03-attr-2-type" class="er entityLabel">int</text><rect height="21" width="68.93191528320312" y="45" x="34.921875" class="er attributeBoxEven"/><text style="dominant-baseline: middle; font-size: 10.2px;" transform="translate(39.921875,55.5)" y="0" x="0" id="text-entity-PROPERTY-ef67ef10-931a-508c-a211-2ca2f987ce03-attr-2-name" class="er entityLabel">productor_id</text><rect height="21" width="34.921875" y="66" x="0" class="er attributeBoxOdd"/><text style="dominant-baseline: middle; font-size: 10.2px;" transform="translate(5,76.5)" y="0" x="0" id="text-entity-PROPERTY-ef67ef10-931a-508c-a211-2ca2f987ce03-attr-3-type" class="er entityLabel">string</text><rect height="21" width="68.93191528320312" y="66" x="34.921875" class="er attributeBoxOdd"/><text style="dominant-baseline: middle; font-size: 10.2px;" transform="translate(39.921875,76.5)" y="0" x="0" id="text-entity-PROPERTY-ef67ef10-931a-508c-a211-2ca2f987ce03-attr-3-name" class="er entityLabel">name</text><rect height="21" width="34.921875" y="87" x="0" class="er attributeBoxEven"/><text style="dominant-baseline: middle; font-size: 10.2px;" transform="translate(5,97.5)" y="0" x="0" id="text-entity-PROPERTY-ef67ef10-931a-508c-a211-2ca2f987ce03-attr-4-type" class="er entityLabel">string</text><rect height="21" width="68.93191528320312" y="87" x="34.921875" class="er attributeBoxEven"/><text style="dominant-baseline: middle; font-size: 10.2px;" transform="translate(39.921875,97.5)" y="0" x="0" id="text-entity-PROPERTY-ef67ef10-931a-508c-a211-2ca2f987ce03-attr-4-name" class="er entityLabel">agroRegister</text></g><rect height="14" width="20.015625" y="150" x="263.7171936035156" class="er relationshipLabelBox"/><text style="text-anchor: middle; dominant-baseline: middle; font-size: 12px;" y="157" x="273.7250061035156" id="rel1" class="er relationshipLabel">tem</text><style>svg span {
    font-family: 'Arial' !important;
}

svg {
    font-family: 'Arial' !important;
    -webkit-user-select: none;
    -moz-user-select: none;
    -ms-user-select: none;
    user-select: none;
}
</style></svg>